<svg width="126" height="64" viewBox="0 0 126 64" fill="none" xmlns="http://www.w3.org/2000/svg">
<path fill-rule="evenodd" clip-rule="evenodd" d="M0.154175 62.9013H12.7069V54.8922H5.75578V28.6052H0.154175V62.9013ZM31.6348 39.2547H27.0101V43.1482C25.8898 39.9259 24.3956 38.4859 22.2702 38.4859C18.2486 38.4859 15.7223 43.4292 15.7223 51.1021C15.7223 58.9197 18.2486 63.8218 21.954 63.8218C24.1946 63.8218 25.717 62.3735 27.0383 59.0631V62.9013H31.6348V39.2547ZM27.2394 51.0539C27.2394 54.7476 25.9756 57.0035 23.936 57.0035C21.8964 57.0035 20.662 54.7476 20.662 51.0539C20.662 47.4085 21.8964 45.0573 23.936 45.0573C25.9756 45.0573 27.2394 47.4085 27.2394 51.0539ZM36.7744 62.9013H41.686V52.3964L47.0301 62.9013H53.6051L46.6539 50.6248L53.0314 39.2547H46.8267L41.6848 49.5656V26.5891H36.7733V62.9013H36.7744ZM55.1851 60.9358C57.1083 62.9013 59.2055 63.8218 61.6472 63.8218C65.4102 63.8218 67.7366 60.4573 67.7366 55.708C67.7366 51.9156 66.4141 49.9019 63.7162 48.5594C61.7354 47.5519 60.4704 47.4567 60.4704 45.825C60.4704 44.7223 61.0441 44.0981 62.1926 44.0981C63.514 44.0981 64.8941 44.8175 66.2719 46.4034L67.3064 40.6442C65.3514 39.2053 63.514 38.4859 61.6472 38.4859C57.9418 38.4859 55.9033 41.7481 55.9033 46.0648C55.9033 49.6632 57.2517 51.8204 60.1824 53.1182C62.0469 53.9341 63.1978 53.9341 63.1978 55.8996C63.1978 57.1469 62.5371 57.8675 61.2733 57.8675C59.55 57.8675 57.682 56.7143 56.2184 54.5559L55.1851 60.9358ZM71.7583 62.9013H76.6686V52.9736C76.6686 47.6506 77.4151 44.8175 79.6558 44.8175C81.3216 44.8175 81.9822 46.5456 81.9822 50.2392V62.9013H86.9796V49.374C86.9796 45.9696 86.8926 43.3763 85.9451 41.3637C85.0846 39.5404 83.5904 38.4859 81.753 38.4859C79.3689 38.4859 77.7878 40.0682 76.4958 43.6196C76.6122 42.2747 76.6686 40.7876 76.6686 39.3487V26.5891H71.7583V62.9013ZM110.616 62.9013H115.554V48.4136C115.554 45.6827 115.497 43.3774 114.608 41.3637C113.747 39.4451 112.454 38.4859 110.759 38.4859C108.632 38.4859 107.082 39.9259 105.936 42.9483C105.299 39.9741 103.836 38.4859 101.539 38.4859C99.443 38.4859 97.9771 40.0223 96.7721 43.3774V39.2547H91.8594V62.9013H96.7133V52.8761C96.7133 47.7447 96.885 44.5789 99.2396 44.5789C100.907 44.5789 101.251 46.3516 101.251 49.9982V62.9013H106.074V52.8761C106.074 47.6977 106.248 44.5789 108.577 44.5789C110.214 44.5789 110.614 46.2552 110.614 49.9982V62.9013H110.616ZM120.582 62.9013H125.581V39.2547H120.582V62.9013Z" fill="#0066B2"/>
<path fill-rule="evenodd" clip-rule="evenodd" d="M120.323 31.8839C120.323 30.6413 120.593 29.548 121.11 28.6628C121.651 27.7658 122.301 27.3226 123.063 27.3226C123.838 27.3226 124.501 27.7658 125.029 28.6393C125.557 29.4986 125.83 30.6048 125.83 31.8968C125.83 33.177 125.558 34.282 125.019 35.179C124.49 36.0771 123.827 36.5438 123.064 36.5438C122.314 36.5438 121.674 36.0771 121.135 35.179C120.593 34.2703 120.325 33.1617 120.325 31.8968V31.8839H120.323Z" fill="#EC1C24"/>
<path fill-rule="evenodd" clip-rule="evenodd" d="M99.1009 24.2133L125.724 0C121.794 9.72433 117.161 21.6611 125.724 24.2133H99.1009Z" fill="#EC1C24"/>
<path fill-rule="evenodd" clip-rule="evenodd" d="M68.8475 24.2133L95.4719 0C91.5419 9.72433 86.9102 21.6611 95.4719 24.2133H68.8475Z" fill="#EC1C24"/>
<path fill-rule="evenodd" clip-rule="evenodd" d="M38.6071 24.2133L65.2315 0C61.3039 9.72433 56.6698 21.6611 65.2315 24.2133H38.6071Z" fill="#EC1C24"/>
<path fill-rule="evenodd" clip-rule="evenodd" d="M21.2581 0.0611287C21.6601 0.973373 21.9752 1.58232 22.1879 2.80256C22.2162 3.05061 22.2185 3.18815 22.2114 3.41386C22.1515 3.73126 22.0527 4.38606 21.8317 4.7352C21.7353 4.88568 21.6342 5.1396 21.6389 5.42174L21.7859 5.65568C22.2702 6.42685 23.4693 6.40804 24.1841 6.96997C24.2229 7.06636 24.331 7.17334 24.3757 7.28384C24.9823 8.36537 25.0187 9.26586 25.7981 10.2298C25.8722 10.3168 25.9004 10.3568 25.9533 10.3862C26.0179 10.405 26.0885 10.3827 26.1414 10.3533C26.6398 9.71257 26.7021 8.96138 27.0395 8.27132C27.0713 8.22077 27.0278 8.15259 27.0372 8.09264L26.8361 7.73996L26.6245 7.50838C26.5517 7.3485 26.5575 7.20273 26.5552 7.03227C26.5669 6.91001 26.6046 6.7854 26.6528 6.67255C26.6528 6.63728 26.6633 6.59613 26.6916 6.55734L26.6704 6.02128C26.6387 5.93546 26.5669 5.81673 26.4506 5.75677C26.2825 5.63099 26.1919 5.66391 26.0132 5.63452C25.985 5.63452 25.9427 5.61571 25.9121 5.58514L25.9721 5.41586C26.0908 5.3465 26.2237 5.30418 26.36 5.25363C26.822 5.15488 26.976 5.19132 27.3487 5.30771L27.5956 5.42291C27.6297 5.45113 27.6508 5.48052 27.672 5.51931C27.672 5.54282 27.672 5.56045 27.6532 5.58044C27.612 5.61218 27.5509 5.61218 27.4968 5.61336C27.4075 5.63804 27.3381 5.6639 27.2511 5.69565C27.1371 5.75913 27.0771 5.86845 27.0383 5.99777C27.0595 5.93899 26.9596 6.20349 27.0442 6.26345C27.1383 6.36337 27.2452 6.43038 27.3369 6.54794C27.5638 6.87122 27.6696 7.08047 27.6626 7.47076C27.7684 7.8681 27.719 8.14319 27.6626 8.54171C27.4545 9.67613 26.9749 10.5754 26.4165 11.59C26.3212 11.8016 26.2296 11.9462 26.0003 11.9027C24.9423 11.4959 23.929 9.9183 23.6304 9.03545C23.608 8.96138 23.6127 8.79563 23.5528 8.74155C23.4646 8.68395 23.4011 8.76389 23.3882 8.83912C22.9427 10.0747 22.289 11.115 23.1907 12.2589C23.2989 12.3952 23.3623 12.5316 23.4376 12.6409C24.2581 13.7366 24.2229 15.1684 24.2464 16.4263C24.4356 19.5944 22.3466 23.2763 22.2561 26.3152C22.2855 27.9633 22.0915 28.2619 22.8333 30.164C22.8627 30.204 22.9144 30.2228 22.9697 30.2722C24.3863 30.4791 25.8722 30.8611 27.0748 31.677C27.1794 31.7557 27.2217 31.7816 27.2629 31.8227C27.2981 31.9015 27.3992 31.9403 27.3922 32.0367C25.1316 32.387 23.5998 32.7902 21.6319 33.9329C21.5837 33.9834 21.432 34.0869 21.4027 34.1574L21.3991 36.2923L20.8078 36.2911L20.8066 34.1574C20.8066 34.1398 17.7807 32.126 14.7313 31.9473C14.6925 31.9297 14.669 31.8991 14.6396 31.8368L14.7689 31.6582C15.9891 30.9164 17.3528 30.5684 18.7658 30.3838C18.8387 30.3827 18.8705 30.3509 18.8787 30.2921C18.8787 30.2533 18.814 30.2334 18.7847 30.1969L18.3626 29.9606L18.4861 29.8325L18.5401 29.7725C19.5488 28.3007 20.0343 27.3473 20.3435 25.7098C20.7126 22.6509 19.3642 19.9083 19.3101 16.9353C19.2831 15.4012 19.5335 14.1339 20.0778 12.7091C20.2212 11.2138 20.0507 10.4885 19.5194 8.91906C19.4806 8.75919 19.4818 8.67454 19.4183 8.64163C19.3795 8.61459 19.3266 8.65103 19.296 8.67454C18.7823 9.76548 18.3426 10.867 17.4762 11.7687C17.2999 11.9567 17.2317 12.0908 16.9743 11.972C16.0456 11.3407 15.3449 9.61971 15.3261 8.56169C15.3085 8.35596 15.1956 8.19844 15.2027 8.08793C15.1886 7.86222 15.1768 7.6659 15.2039 7.51543C15.3555 7.18157 15.3108 6.95233 15.5789 6.65961C15.7 6.50679 15.8422 6.43626 15.9139 6.34574C15.9727 6.27755 16.0444 6.19526 16.0432 6.1741C16.0432 6.13413 16.0432 6.09887 16.042 6.05655L15.8728 5.82026C15.7799 5.73914 15.4978 5.64157 15.3743 5.68977C15.3344 5.68977 15.3003 5.67213 15.2815 5.63216C15.3978 5.47816 15.5742 5.32416 15.7799 5.26656C16.2419 5.19015 16.5499 5.20426 16.9073 5.46053C16.959 5.52989 16.9907 5.54752 17.0095 5.58749C17.0107 5.60748 17.0013 5.62629 16.9731 5.63687C16.6863 5.64745 16.5734 5.5922 16.4076 5.79322C16.3783 5.83554 16.3677 5.90255 16.3371 5.97308L16.4723 7.09928C16.4229 7.2427 16.3689 7.32264 16.2842 7.47781L15.9974 7.70822C15.8869 7.88574 15.9292 7.88926 15.9116 8.11615L16.9414 10.358C16.9837 10.3744 17.0237 10.3744 17.0742 10.3556C17.6502 9.17651 18.2169 7.84224 18.8352 6.72545C18.9069 6.68665 18.9481 6.6361 19.0198 6.58555L20.6127 5.852L20.7326 5.62864L20.7008 5.0385C20.6903 4.99853 20.6797 4.95974 20.6703 4.91977L20.2988 4.15447C20.2671 3.79004 20.1812 3.46323 20.1742 3.0894C20.2224 2.05607 20.521 1.17557 21.0429 0.250396C21.1276 0.152823 21.1146 0.054075 21.1863 0.00234985C21.2146 0.00234985 21.2357 0.0246859 21.2581 0.0611287Z" fill="#EC1C24"/>
</svg>
